<svg width="15" height="15" viewBox="0 0 15 15" fill="none" xmlns="http://www.w3.org/2000/svg">
  <g clip-path="url(#clip0_35_327)">
    <path d="M1.31104 11.2136L10.5971 1.92725L13.0725 4.40261L3.78615 13.6887L1.31104 11.2136Z" fill="black"/>
    <path d="M14.1336 3.34184L14.4872 2.98825C14.8177 2.65766 14.9998 2.2183 14.9998 1.75069C14.9998 1.28307 14.8177 0.843711 14.4872 0.513128C14.1566 0.182546 13.717 0 13.2494 0C12.7817 0 12.3424 0.182296 12.0115 0.512878L11.658 0.866467L14.1336 3.34184Z" fill="black"/>
    <path d="M1.02486 11.6348L0.0126054 14.671C-0.0174021 14.7608 0.00610381 14.8601 0.0731206 14.9268C0.120632 14.9744 0.184648 15.0001 0.249915 15.0001C0.276421 15.0001 0.302928 14.9959 0.328934 14.9871L3.36494 13.9751L1.02486 11.6348Z" fill="black"/>
    <path d="M10.9509 1.57405L11.3048 1.22021L13.7801 3.69558L13.4263 4.04942L10.9509 1.57405Z" fill="black"/>
  </g>
  <defs>
    <clipPath id="clip0_35_327">
      <rect width="15" height="15" fill="white"/>
    </clipPath>
  </defs>
</svg>