<svg width="13" height="13" viewBox="0 0 13 13" fill="none" xmlns="http://www.w3.org/2000/svg">
  <path d="M13 11.9717L9.16208 8.13376C9.79915 7.28361 10.1814 6.23225 10.1814 5.09072C10.1814 2.28355 7.89789 0 5.09072 0C2.28355 0 0 2.28355 0 5.09072C0 7.89789 2.28355 10.1814 5.09072 10.1814C6.23225 10.1814 7.28361 9.79915 8.13376 9.16208L11.9717 13L13 11.9717ZM0.48483 5.09072C0.48483 2.55094 2.55094 0.48483 5.09072 0.48483C7.6305 0.48483 9.69661 2.55094 9.69661 5.09072C9.69661 7.6305 7.6305 9.69661 5.09072 9.69661C2.55094 9.69661 0.48483 7.6305 0.48483 5.09072ZM8.62198 8.74949C8.66513 8.7078 8.70755 8.66537 8.74925 8.62222C8.78464 8.58562 8.82294 8.55192 8.85712 8.51435L12.3145 11.9717L11.9714 12.3147L8.51435 8.85712C8.55192 8.82294 8.58538 8.78464 8.62198 8.74949Z" fill="black"/>
</svg>